<svg xmlns="http://www.w3.org/2000/svg" xmlns:xlink="http://www.w3.org/1999/xlink" xmlns:lucid="lucid" width="1760" height="1360"><g transform="translate(0 0)" lucid:page-tab-id="HWEp-vi-RSFO"><path d="M420 260h640v740H420z" stroke="#333" stroke-width="2" fill="#fff"/><path d="M420 350.93h640M420 585.58h640" stroke="#333" stroke-width="2" fill="none"/><use xlink:href="#a" transform="matrix(1,0,0,1,428,268) translate(78.18024691358065 49.988888888888866)"/><use xlink:href="#b" transform="matrix(1,0,0,1,432,358.9333333333332) translate(0 117.5)"/><use xlink:href="#c" transform="matrix(1,0,0,1,432,358.9333333333332) translate(24.333333333333332 117.5)"/><use xlink:href="#d" transform="matrix(1,0,0,1,432,593.5848436770689) translate(0 115.90000000000003)"/><use xlink:href="#e" transform="matrix(1,0,0,1,432,593.5848436770689) translate(291.01666666666654 115.90000000000003)"/><use xlink:href="#f" transform="matrix(1,0,0,1,432,593.5848436770689) translate(362.79444444444425 115.90000000000003)"/><use xlink:href="#g" transform="matrix(1,0,0,1,432,593.5848436770689) translate(392.3499999999998 115.90000000000003)"/><use xlink:href="#h" transform="matrix(1,0,0,1,432,593.5848436770689) translate(0 161.5)"/><use xlink:href="#i" transform="matrix(1,0,0,1,432,593.5848436770689) translate(0 207.1)"/><use xlink:href="#f" transform="matrix(1,0,0,1,432,593.5848436770689) translate(130.78333333333325 207.1)"/><use xlink:href="#j" transform="matrix(1,0,0,1,432,593.5848436770689) translate(160.3388888888888 207.1)"/><use xlink:href="#k" transform="matrix(1,0,0,1,432,593.5848436770689) translate(0 252.7)"/><use xlink:href="#l" transform="matrix(1,0,0,1,432,593.5848436770689) translate(32.7222222222222 252.7)"/><use xlink:href="#m" transform="matrix(1,0,0,1,432,593.5848436770689) translate(0 298.29999999999995)"/><path d="M453.15 75a8 8 0 0 1 8-8h836.75a8 8 0 0 1 8 8v25.16a8 8 0 0 1-8 8H461.15a8 8 0 0 1-8-8z" stroke="#000" stroke-opacity="0" stroke-width="2" fill="#fff" fill-opacity="0"/><g><use xlink:href="#n" transform="matrix(1,0,0,1,457.1465527853429,70.99999999994924) translate(358.9433333333333 23.657777777777778)"/><use xlink:href="#o" transform="matrix(1,0,0,1,457.1465527853429,70.99999999994924) translate(436.08037037037036 23.657777777777778)"/></g><path d="M729.63 106.8H1039M729.65 106.8h-1.02M1038.96 106.8h1.03" stroke="#a9afb8" stroke-width="2" fill="none"/><path d="M453.15 116.16a8 8 0 0 1 8-8h837.7a8 8 0 0 1 8 8V119a8 8 0 0 1-8 8h-837.7a8 8 0 0 1-8-8z" stroke="#000" stroke-opacity="0" stroke-width="2" fill="#fff" fill-opacity="0"/><g><use xlink:href="#p" transform="matrix(1,0,0,1,457.1465527853434,112.15522395684805) translate(225.71606995884778 14.917037037037037)"/><use xlink:href="#q" transform="matrix(1,0,0,1,457.1465527853434,112.15522395684805) translate(263.9143209876544 14.917037037037037)"/><use xlink:href="#r" transform="matrix(1,0,0,1,457.1465527853434,112.15522395684805) translate(319.4058847736626 14.917037037037037)"/><use xlink:href="#s" transform="matrix(1,0,0,1,457.1465527853434,112.15522395684805) translate(402.5582510288066 14.917037037037037)"/><use xlink:href="#t" transform="matrix(1,0,0,1,457.1465527853434,112.15522395684805) translate(477.17018518518523 14.917037037037037)"/><use xlink:href="#u" transform="matrix(1,0,0,1,457.1465527853434,112.15522395684805) translate(489.619670781893 14.917037037037037)"/><use xlink:href="#v" transform="matrix(1,0,0,1,457.1465527853434,112.15522395684805) translate(568.5655555555555 14.917037037037037)"/><use xlink:href="#w" transform="matrix(1,0,0,1,457.1465527853434,112.15522395684805) translate(592.9121604938272 14.917037037037037)"/></g><defs><path fill="#333" d="M175 0L67-191c6 58 2 128 3 191H24v-248h59L193-55c-6-58-2-129-3-193h46V0h-61" id="x"/><path fill="#333" d="M85 4C-2 5 27-109 22-190h50c7 57-23 150 33 157 60-5 35-97 40-157h50l1 190h-47c-2-12 1-28-3-38-12 25-28 42-61 42" id="y"/><path fill="#333" d="M220-157c-53 9-28 100-34 157h-49v-107c1-27-5-49-29-50C55-147 81-57 75 0H25l-1-190h47c2 12-1 28 3 38 10-53 101-56 108 0 13-22 24-43 59-42 82 1 51 116 57 194h-49v-107c-1-25-5-48-29-50" id="z"/><path fill="#333" d="M185-48c-13 30-37 53-82 52C43 2 14-33 14-96s30-98 90-98c62 0 83 45 84 108H66c0 31 8 55 39 56 18 0 30-7 34-22zm-45-69c5-46-57-63-70-21-2 6-4 13-4 21h74" id="A"/><path fill="#333" d="M135-150c-39-12-60 13-60 57V0H25l-1-190h47c2 13-1 29 3 40 6-28 27-53 61-41v41" id="B"/><path fill="#333" d="M110-194c64 0 96 36 96 99 0 64-35 99-97 99-61 0-95-36-95-99 0-62 34-99 96-99zm-1 164c35 0 45-28 45-65 0-40-10-65-43-65-34 0-45 26-45 65 0 36 10 65 43 65" id="C"/><path fill="#333" d="M169-182c-1-43-94-46-97-3 18 66 151 10 154 114 3 95-165 93-204 36-6-8-10-19-12-30l50-8c3 46 112 56 116 5-17-69-150-10-154-114-4-87 153-88 188-35 5 8 8 18 10 28" id="D"/><path fill="#333" d="M135-194c53 0 70 44 70 98 0 56-19 98-73 100-31 1-45-17-59-34 3 33 2 69 2 105H25l-1-265h48c2 10 0 23 3 31 11-24 29-35 60-35zM114-30c33 0 39-31 40-66 0-38-9-64-40-64-56 0-55 130 0 130" id="E"/><path fill="#333" d="M133-34C117-15 103 5 69 4 32 3 11-16 11-54c-1-60 55-63 116-61 1-26-3-47-28-47-18 1-26 9-28 27l-52-2c7-38 36-58 82-57s74 22 75 68l1 82c-1 14 12 18 25 15v27c-30 8-71 5-69-32zm-48 3c29 0 43-24 42-57-32 0-66-3-65 30 0 17 8 27 23 27" id="F"/><g id="a"><use transform="matrix(0.17345679012345652,0,0,0.17345679012345652,0,0)" xlink:href="#x"/><use transform="matrix(0.17345679012345652,0,0,0.17345679012345652,44.92530864197524,0)" xlink:href="#y"/><use transform="matrix(0.17345679012345652,0,0,0.17345679012345652,82.91234567901222,0)" xlink:href="#z"/><use transform="matrix(0.17345679012345652,0,0,0.17345679012345652,138.4185185185183,0)" xlink:href="#A"/><use transform="matrix(0.17345679012345652,0,0,0.17345679012345652,173.10987654320962,0)" xlink:href="#B"/><use transform="matrix(0.17345679012345652,0,0,0.17345679012345652,197.39382716049357,0)" xlink:href="#C"/><use transform="matrix(0.17345679012345652,0,0,0.17345679012345652,235.3808641975305,0)" xlink:href="#D"/><use transform="matrix(0.17345679012345652,0,0,0.17345679012345652,277.0104938271601,0)" xlink:href="#A"/><use transform="matrix(0.17345679012345652,0,0,0.17345679012345652,311.70185185185136,0)" xlink:href="#E"/><use transform="matrix(0.17345679012345652,0,0,0.17345679012345652,349.68888888888836,0)" xlink:href="#F"/><use transform="matrix(0.17345679012345652,0,0,0.17345679012345652,384.38024691357964,0)" xlink:href="#B"/><use transform="matrix(0.17345679012345652,0,0,0.17345679012345652,408.6641975308636,0)" xlink:href="#F"/><use transform="matrix(0.17345679012345652,0,0,0.17345679012345652,443.3555555555548,0)" xlink:href="#B"/></g><path fill="#333" d="M16-82v-28h88v28H16" id="G"/><use transform="matrix(0.1111111111111111,0,0,0.1111111111111111,0,0)" xlink:href="#G" id="b"/><path fill="#333" d="M117-194c89-4 53 116 60 194h-32v-121c0-31-8-49-39-48C34-167 62-67 57 0H25l-1-190h30c1 10-1 24 2 32 11-22 29-35 61-36" id="H"/><path fill="#333" d="M84 4C-5 8 30-112 23-190h32v120c0 31 7 50 39 49 72-2 45-101 50-169h31l1 190h-30c-1-10 1-25-2-33-11 22-28 36-60 37" id="I"/><path fill="#333" d="M210-169c-67 3-38 105-44 169h-31v-121c0-29-5-50-35-48C34-165 62-65 56 0H25l-1-190h30c1 10-1 24 2 32 10-44 99-50 107 0 11-21 27-35 58-36 85-2 47 119 55 194h-31v-121c0-29-5-49-35-48" id="J"/><path fill="#333" d="M100-194c63 0 86 42 84 106H49c0 40 14 67 53 68 26 1 43-12 49-29l28 8c-11 28-37 45-77 45C44 4 14-33 15-96c1-61 26-98 85-98zm52 81c6-60-76-77-97-28-3 7-6 17-6 28h103" id="K"/><path fill="#333" d="M114-163C36-179 61-72 57 0H25l-1-190h30c1 12-1 29 2 39 6-27 23-49 58-41v29" id="L"/><path fill="#333" d="M100-194c62-1 85 37 85 99 1 63-27 99-86 99S16-35 15-95c0-66 28-99 85-99zM99-20c44 1 53-31 53-75 0-43-8-75-51-75s-53 32-53 75 10 74 51 75" id="M"/><path fill="#333" d="M33-154v-36h34v36H33zM33 0v-36h34V0H33" id="N"/><path fill="#333" d="M33 0v-248h34V0H33" id="O"/><path fill="#333" d="M59-47c-2 24 18 29 38 22v24C64 9 27 4 27-40v-127H5v-23h24l9-43h21v43h35v23H59v120" id="P"/><path fill="#333" d="M177-190C167-65 218 103 67 71c-23-6-38-20-44-43l32-5c15 47 100 32 89-28v-30C133-14 115 1 83 1 29 1 15-40 15-95c0-56 16-97 71-98 29-1 48 16 59 35 1-10 0-23 2-32h30zM94-22c36 0 50-32 50-73 0-42-14-75-50-75-39 0-46 34-46 75s6 73 46 73" id="Q"/><g id="c"><use transform="matrix(0.1111111111111111,0,0,0.1111111111111111,0,0)" xlink:href="#H"/><use transform="matrix(0.1111111111111111,0,0,0.1111111111111111,22.22222222222222,0)" xlink:href="#I"/><use transform="matrix(0.1111111111111111,0,0,0.1111111111111111,44.44444444444444,0)" xlink:href="#J"/><use transform="matrix(0.1111111111111111,0,0,0.1111111111111111,77.66666666666666,0)" xlink:href="#K"/><use transform="matrix(0.1111111111111111,0,0,0.1111111111111111,99.88888888888889,0)" xlink:href="#L"/><use transform="matrix(0.1111111111111111,0,0,0.1111111111111111,113.11111111111111,0)" xlink:href="#M"/><use transform="matrix(0.1111111111111111,0,0,0.1111111111111111,135.33333333333334,0)" xlink:href="#N"/><use transform="matrix(0.1111111111111111,0,0,0.1111111111111111,146.44444444444446,0)" xlink:href="#O"/><use transform="matrix(0.1111111111111111,0,0,0.1111111111111111,157.55555555555557,0)" xlink:href="#H"/><use transform="matrix(0.1111111111111111,0,0,0.1111111111111111,179.7777777777778,0)" xlink:href="#P"/><use transform="matrix(0.1111111111111111,0,0,0.1111111111111111,190.8888888888889,0)" xlink:href="#K"/><use transform="matrix(0.1111111111111111,0,0,0.1111111111111111,213.11111111111114,0)" xlink:href="#Q"/><use transform="matrix(0.1111111111111111,0,0,0.1111111111111111,235.33333333333337,0)" xlink:href="#K"/><use transform="matrix(0.1111111111111111,0,0,0.1111111111111111,257.5555555555556,0)" xlink:href="#L"/></g><path fill="#333" d="M18-100v-36l175-74v27L42-118l151 64v27" id="R"/><path fill="#333" d="M212-179c-10-28-35-45-73-45-59 0-87 40-87 99 0 60 29 101 89 101 43 0 62-24 78-52l27 14C228-24 195 4 139 4 59 4 22-46 18-125c-6-104 99-153 187-111 19 9 31 26 39 46" id="S"/><path fill="#333" d="M135-143c-3-34-86-38-87 0 15 53 115 12 119 90S17 21 10-45l28-5c4 36 97 45 98 0-10-56-113-15-118-90-4-57 82-63 122-42 12 7 21 19 24 35" id="T"/><path fill="#333" d="M96-169c-40 0-48 33-48 73s9 75 48 75c24 0 41-14 43-38l32 2c-6 37-31 61-74 61-59 0-76-41-82-99-10-93 101-131 147-64 4 7 5 14 7 22l-32 3c-4-21-16-35-41-35" id="U"/><g id="d"><use transform="matrix(0.1055555555555555,0,0,0.1055555555555555,0,0)" xlink:href="#R"/><use transform="matrix(0.1055555555555555,0,0,0.1055555555555555,22.166666666666654,0)" xlink:href="#R"/><use transform="matrix(0.1055555555555555,0,0,0.1055555555555555,44.33333333333331,0)" xlink:href="#S"/><use transform="matrix(0.1055555555555555,0,0,0.1055555555555555,71.67222222222219,0)" xlink:href="#M"/><use transform="matrix(0.1055555555555555,0,0,0.1055555555555555,92.78333333333329,0)" xlink:href="#H"/><use transform="matrix(0.1055555555555555,0,0,0.1055555555555555,113.89444444444439,0)" xlink:href="#T"/><use transform="matrix(0.1055555555555555,0,0,0.1055555555555555,132.8944444444444,0)" xlink:href="#P"/><use transform="matrix(0.1055555555555555,0,0,0.1055555555555555,143.44999999999993,0)" xlink:href="#L"/><use transform="matrix(0.1055555555555555,0,0,0.1055555555555555,156.01111111111103,0)" xlink:href="#I"/><use transform="matrix(0.1055555555555555,0,0,0.1055555555555555,177.12222222222215,0)" xlink:href="#U"/><use transform="matrix(0.1055555555555555,0,0,0.1055555555555555,196.12222222222215,0)" xlink:href="#P"/><use transform="matrix(0.1055555555555555,0,0,0.1055555555555555,206.6777777777777,0)" xlink:href="#M"/><use transform="matrix(0.1055555555555555,0,0,0.1055555555555555,227.78888888888878,0)" xlink:href="#L"/><use transform="matrix(0.1055555555555555,0,0,0.1055555555555555,240.34999999999988,0)" xlink:href="#K"/><use transform="matrix(0.1055555555555555,0,0,0.1055555555555555,261.461111111111,0)" xlink:href="#T"/></g><g id="e"><use transform="matrix(0.1055555555555555,0,0,0.1055555555555555,0,0)" xlink:href="#U"/><use transform="matrix(0.1055555555555555,0,0,0.1055555555555555,18.99999999999999,0)" xlink:href="#M"/><use transform="matrix(0.1055555555555555,0,0,0.1055555555555555,40.111111111111086,0)" xlink:href="#H"/></g><path fill="#333" d="M179-190L93 31C79 59 56 82 12 73V49c39 6 53-20 64-50L1-190h34L92-34l54-156h33" id="V"/><use transform="matrix(0.1055555555555555,0,0,0.1055555555555555,0,0)" xlink:href="#V" id="f"/><path fill="#333" d="M24-231v-30h32v30H24zM24 0v-190h32V0H24" id="W"/><g id="g"><use transform="matrix(0.1055555555555555,0,0,0.1055555555555555,0,0)" xlink:href="#T"/><use transform="matrix(0.1055555555555555,0,0,0.1055555555555555,18.99999999999999,0)" xlink:href="#W"/><use transform="matrix(0.1055555555555555,0,0,0.1055555555555555,27.338888888888874,0)" xlink:href="#H"/></g><path fill="#333" d="M115-194c55 1 70 41 70 98S169 2 115 4C84 4 66-9 55-30l1 105H24l-1-265h31l2 30c10-21 28-34 59-34zm-8 174c40 0 45-34 45-75s-6-73-45-74c-42 0-51 32-51 76 0 43 10 73 51 73" id="X"/><path fill="#333" d="M141-36C126-15 110 5 73 4 37 3 15-17 15-53c-1-64 63-63 125-63 3-35-9-54-41-54-24 1-41 7-42 31l-33-3c5-37 33-52 76-52 45 0 72 20 72 64v82c-1 20 7 32 28 27v20c-31 9-61-2-59-35zM48-53c0 20 12 33 32 33 41-3 63-29 60-74-43 2-92-5-92 41" id="Y"/><path fill="#333" d="M18-27v-27l151-64-151-65v-27l175 74v36" id="Z"/><g id="h"><use transform="matrix(0.1055555555555555,0,0,0.1055555555555555,0,0)" xlink:href="#X"/><use transform="matrix(0.1055555555555555,0,0,0.1055555555555555,21.1111111111111,0)" xlink:href="#Y"/><use transform="matrix(0.1055555555555555,0,0,0.1055555555555555,42.2222222222222,0)" xlink:href="#L"/><use transform="matrix(0.1055555555555555,0,0,0.1055555555555555,54.7833333333333,0)" xlink:href="#Y"/><use transform="matrix(0.1055555555555555,0,0,0.1055555555555555,75.8944444444444,0)" xlink:href="#J"/><use transform="matrix(0.1055555555555555,0,0,0.1055555555555555,107.45555555555549,0)" xlink:href="#K"/><use transform="matrix(0.1055555555555555,0,0,0.1055555555555555,128.5666666666666,0)" xlink:href="#P"/><use transform="matrix(0.1055555555555555,0,0,0.1055555555555555,139.12222222222215,0)" xlink:href="#L"/><use transform="matrix(0.1055555555555555,0,0,0.1055555555555555,151.68333333333325,0)" xlink:href="#M"/><use transform="matrix(0.1055555555555555,0,0,0.1055555555555555,172.79444444444437,0)" xlink:href="#T"/><use transform="matrix(0.1055555555555555,0,0,0.1055555555555555,191.79444444444437,0)" xlink:href="#Z"/><use transform="matrix(0.1055555555555555,0,0,0.1055555555555555,213.96111111111102,0)" xlink:href="#Z"/></g><path fill="#333" d="M185-189c-5-48-123-54-124 2 14 75 158 14 163 119 3 78-121 87-175 55-17-10-28-26-33-46l33-7c5 56 141 63 141-1 0-78-155-14-162-118-5-82 145-84 179-34 5 7 8 16 11 25" id="aa"/><g id="i"><use transform="matrix(0.1055555555555555,0,0,0.1055555555555555,0,0)" xlink:href="#aa"/><use transform="matrix(0.1055555555555555,0,0,0.1055555555555555,25.33333333333332,0)" xlink:href="#K"/><use transform="matrix(0.1055555555555555,0,0,0.1055555555555555,46.44444444444442,0)" xlink:href="#P"/><use transform="matrix(0.1055555555555555,0,0,0.1055555555555555,56.99999999999997,0)" xlink:href="#P"/><use transform="matrix(0.1055555555555555,0,0,0.1055555555555555,67.55555555555551,0)" xlink:href="#K"/><use transform="matrix(0.1055555555555555,0,0,0.1055555555555555,88.66666666666661,0)" xlink:href="#L"/><use transform="matrix(0.1055555555555555,0,0,0.1055555555555555,101.22777777777772,0)" xlink:href="#T"/></g><path fill="#333" d="M143 4C61 4 22-44 18-125c-5-107 100-154 193-111 17 8 29 25 37 43l-32 9c-13-25-37-40-76-40-61 0-88 39-88 99 0 61 29 100 91 101 35 0 62-11 79-27v-45h-74v-28h105v86C228-13 192 4 143 4" id="ab"/><g id="j"><use transform="matrix(0.1055555555555555,0,0,0.1055555555555555,0,0)" xlink:href="#ab"/><use transform="matrix(0.1055555555555555,0,0,0.1055555555555555,29.55555555555554,0)" xlink:href="#K"/><use transform="matrix(0.1055555555555555,0,0,0.1055555555555555,50.66666666666664,0)" xlink:href="#P"/><use transform="matrix(0.1055555555555555,0,0,0.1055555555555555,61.22222222222219,0)" xlink:href="#P"/><use transform="matrix(0.1055555555555555,0,0,0.1055555555555555,71.77777777777774,0)" xlink:href="#K"/><use transform="matrix(0.1055555555555555,0,0,0.1055555555555555,92.88888888888884,0)" xlink:href="#L"/><use transform="matrix(0.1055555555555555,0,0,0.1055555555555555,105.44999999999995,0)" xlink:href="#T"/></g><path fill="#333" d="M118-107v75H92v-75H18v-26h74v-75h26v75h74v26h-74" id="ac"/><use transform="matrix(0.1055555555555555,0,0,0.1055555555555555,0,0)" xlink:href="#ac" id="k"/><path fill="#333" d="M190 0L58-211 59 0H30v-248h39L202-35l-2-213h31V0h-41" id="ad"/><path fill="#333" d="M87 75C49 33 22-17 22-94c0-76 28-126 65-167h31c-38 41-64 92-64 168S80 34 118 75H87" id="ae"/><path fill="#333" d="M33-261c38 41 65 92 65 168S71 34 33 75H2C39 34 66-17 66-93S39-220 2-261h31" id="af"/><path fill="#333" d="M108 0H70L1-190h34L89-25l56-165h34" id="ag"/><path fill="#333" d="M85-194c31 0 48 13 60 33l-1-100h32l1 261h-30c-2-10 0-23-3-31C134-8 116 4 85 4 32 4 16-35 15-94c0-66 23-100 70-100zm9 24c-40 0-46 34-46 75 0 40 6 74 45 74 42 0 51-32 51-76 0-42-9-74-50-73" id="ah"/><g id="l"><use transform="matrix(0.1055555555555555,0,0,0.1055555555555555,0,0)" xlink:href="#T"/><use transform="matrix(0.1055555555555555,0,0,0.1055555555555555,18.99999999999999,0)" xlink:href="#K"/><use transform="matrix(0.1055555555555555,0,0,0.1055555555555555,40.111111111111086,0)" xlink:href="#X"/><use transform="matrix(0.1055555555555555,0,0,0.1055555555555555,61.22222222222219,0)" xlink:href="#Y"/><use transform="matrix(0.1055555555555555,0,0,0.1055555555555555,82.33333333333329,0)" xlink:href="#L"/><use transform="matrix(0.1055555555555555,0,0,0.1055555555555555,94.89444444444439,0)" xlink:href="#Y"/><use transform="matrix(0.1055555555555555,0,0,0.1055555555555555,116.00555555555549,0)" xlink:href="#L"/><use transform="matrix(0.1055555555555555,0,0,0.1055555555555555,128.5666666666666,0)" xlink:href="#ad"/><use transform="matrix(0.1055555555555555,0,0,0.1055555555555555,155.90555555555548,0)" xlink:href="#I"/><use transform="matrix(0.1055555555555555,0,0,0.1055555555555555,177.0166666666666,0)" xlink:href="#J"/><use transform="matrix(0.1055555555555555,0,0,0.1055555555555555,208.5777777777777,0)" xlink:href="#K"/><use transform="matrix(0.1055555555555555,0,0,0.1055555555555555,229.6888888888888,0)" xlink:href="#L"/><use transform="matrix(0.1055555555555555,0,0,0.1055555555555555,242.24999999999991,0)" xlink:href="#M"/><use transform="matrix(0.1055555555555555,0,0,0.1055555555555555,263.36111111111103,0)" xlink:href="#ae"/><use transform="matrix(0.1055555555555555,0,0,0.1055555555555555,275.92222222222216,0)" xlink:href="#af"/><use transform="matrix(0.1055555555555555,0,0,0.1055555555555555,288.4833333333333,0)" xlink:href="#N"/><use transform="matrix(0.1055555555555555,0,0,0.1055555555555555,299.03888888888883,0)" xlink:href="#ag"/><use transform="matrix(0.1055555555555555,0,0,0.1055555555555555,318.03888888888883,0)" xlink:href="#M"/><use transform="matrix(0.1055555555555555,0,0,0.1055555555555555,339.1499999999999,0)" xlink:href="#W"/><use transform="matrix(0.1055555555555555,0,0,0.1055555555555555,347.4888888888888,0)" xlink:href="#ah"/></g><path fill="#a9afb8" d="M67-125c0 53 21 87 73 88 37 1 54-22 65-47l45 17C233-25 199 4 140 4 58 4 20-42 15-125 8-235 124-281 211-232c18 10 29 29 36 50l-46 12c-8-25-30-41-62-41-52 0-71 34-72 86" id="ai"/><path fill="#a9afb8" d="M25 0v-261h50V0H25" id="aj"/><path fill="#a9afb8" d="M133-34C117-15 103 5 69 4 32 3 11-16 11-54c-1-60 55-63 116-61 1-26-3-47-28-47-18 1-26 9-28 27l-52-2c7-38 36-58 82-57s74 22 75 68l1 82c-1 14 12 18 25 15v27c-30 8-71 5-69-32zm-48 3c29 0 43-24 42-57-32 0-66-3-65 30 0 17 8 27 23 27" id="ak"/><path fill="#a9afb8" d="M137-138c1-29-70-34-71-4 15 46 118 7 119 86 1 83-164 76-172 9l43-7c4 19 20 25 44 25 33 8 57-30 24-41C81-84 22-81 20-136c-2-80 154-74 161-7" id="al"/><path fill="#a9afb8" d="M185-48c-13 30-37 53-82 52C43 2 14-33 14-96s30-98 90-98c62 0 83 45 84 108H66c0 31 8 55 39 56 18 0 30-7 34-22zm-45-69c5-46-57-63-70-21-2 6-4 13-4 21h74" id="am"/><g id="n"><use transform="matrix(0.0728395061728395,0,0,0.0728395061728395,0,0)" xlink:href="#ai"/><use transform="matrix(0.0728395061728395,0,0,0.0728395061728395,18.86543209876543,0)" xlink:href="#aj"/><use transform="matrix(0.0728395061728395,0,0,0.0728395061728395,26.14938271604938,0)" xlink:href="#ak"/><use transform="matrix(0.0728395061728395,0,0,0.0728395061728395,40.717283950617286,0)" xlink:href="#al"/><use transform="matrix(0.0728395061728395,0,0,0.0728395061728395,55.28518518518518,0)" xlink:href="#am"/></g><path fill="#a9afb8" d="M238-95c0 69-44 99-111 99C63 4 22-25 22-93v-155h51v151c-1 38 19 59 55 60 90 1 49-130 58-211h52v153" id="an"/><path fill="#a9afb8" d="M230 0l2-204L168 0h-37L68-204 70 0H24v-248h70l56 185 57-185h69V0h-46" id="ao"/><path fill="#a9afb8" d="M24 0v-248h52v208h133V0H24" id="ap"/><g id="o"><use transform="matrix(0.0728395061728395,0,0,0.0728395061728395,0,0)" xlink:href="#an"/><use transform="matrix(0.0728395061728395,0,0,0.0728395061728395,18.86543209876543,0)" xlink:href="#ao"/><use transform="matrix(0.0728395061728395,0,0,0.0728395061728395,40.644444444444446,0)" xlink:href="#ap"/></g><path fill="#a9afb8" d="M30 0v-248h33v221h125V0H30" id="aq"/><path fill="#a9afb8" d="M232-93c-1 65-40 97-104 97C67 4 28-28 28-90v-158h33c8 89-33 224 67 224 102 0 64-133 71-224h33v155" id="ar"/><path fill="#a9afb8" d="M33 0v-248h34V0H33" id="as"/><path fill="#a9afb8" d="M185-189c-5-48-123-54-124 2 14 75 158 14 163 119 3 78-121 87-175 55-17-10-28-26-33-46l33-7c5 56 141 63 141-1 0-78-155-14-162-118-5-82 145-84 179-34 5 7 8 16 11 25" id="at"/><g id="p"><use transform="matrix(0.04248971193415638,0,0,0.04248971193415638,0,0)" xlink:href="#aq"/><use transform="matrix(0.04248971193415638,0,0,0.04248971193415638,8.497942386831275,0)" xlink:href="#ar"/><use transform="matrix(0.04248971193415638,0,0,0.04248971193415638,19.502777777777776,0)" xlink:href="#as"/><use transform="matrix(0.04248971193415638,0,0,0.04248971193415638,23.751748971193415,0)" xlink:href="#at"/></g><path fill="#a9afb8" d="M205 0l-28-72H64L36 0H1l101-248h38L239 0h-34zm-38-99l-47-123c-12 45-31 82-46 123h93" id="au"/><path fill="#a9afb8" d="M190 0L58-211 59 0H30v-248h39L202-35l-2-213h31V0h-41" id="av"/><path fill="#a9afb8" d="M143 4C61 4 22-44 18-125c-5-107 100-154 193-111 17 8 29 25 37 43l-32 9c-13-25-37-40-76-40-61 0-88 39-88 99 0 61 29 100 91 101 35 0 62-11 79-27v-45h-74v-28h105v86C228-13 192 4 143 4" id="aw"/><path fill="#a9afb8" d="M30 0v-248h187v28H63v79h144v27H63v87h162V0H30" id="ax"/><g id="q"><use transform="matrix(0.04248971193415638,0,0,0.04248971193415638,0,0)" xlink:href="#au"/><use transform="matrix(0.04248971193415638,0,0,0.04248971193415638,10.19753086419753,0)" xlink:href="#av"/><use transform="matrix(0.04248971193415638,0,0,0.04248971193415638,21.20236625514403,0)" xlink:href="#aw"/><use transform="matrix(0.04248971193415638,0,0,0.04248971193415638,33.099485596707815,0)" xlink:href="#ax"/><use transform="matrix(0.04248971193415638,0,0,0.04248971193415638,43.29701646090535,0)" xlink:href="#aq"/></g><path fill="#a9afb8" d="M212-179c-10-28-35-45-73-45-59 0-87 40-87 99 0 60 29 101 89 101 43 0 62-24 78-52l27 14C228-24 195 4 139 4 59 4 22-46 18-125c-6-104 99-153 187-111 19 9 31 26 39 46" id="ay"/><path fill="#a9afb8" d="M240 0l2-218c-23 76-54 145-80 218h-23L58-218 59 0H30v-248h44l77 211c21-75 51-140 76-211h43V0h-30" id="az"/><path fill="#a9afb8" d="M233-177c-1 41-23 64-60 70L243 0h-38l-65-103H63V0H30v-248c88 3 205-21 203 71zM63-129c60-2 137 13 137-47 0-61-80-42-137-45v92" id="aA"/><path fill="#a9afb8" d="M140-251c81 0 123 46 123 126C263-46 219 4 140 4 59 4 17-45 17-125s42-126 123-126zm0 227c63 0 89-41 89-101s-29-99-89-99c-61 0-89 39-89 99S79-25 140-24" id="aB"/><g id="r"><use transform="matrix(0.04248971193415638,0,0,0.04248971193415638,0,0)" xlink:href="#ay"/><use transform="matrix(0.04248971193415638,0,0,0.04248971193415638,11.004835390946502,0)" xlink:href="#au"/><use transform="matrix(0.04248971193415638,0,0,0.04248971193415638,21.20236625514403,0)" xlink:href="#az"/><use transform="matrix(0.04248971193415638,0,0,0.04248971193415638,33.90679012345679,0)" xlink:href="#au"/><use transform="matrix(0.04248971193415638,0,0,0.04248971193415638,44.10432098765432,0)" xlink:href="#aA"/><use transform="matrix(0.04248971193415638,0,0,0.04248971193415638,55.10915637860082,0)" xlink:href="#aw"/><use transform="matrix(0.04248971193415638,0,0,0.04248971193415638,67.00627572016461,0)" xlink:href="#aB"/></g><path fill="#a9afb8" d="M209 0H11v-25l151-195H24v-28h176v25L50-27h159V0" id="aC"/><g id="s"><use transform="matrix(0.04248971193415638,0,0,0.04248971193415638,0,0)" xlink:href="#aw"/><use transform="matrix(0.04248971193415638,0,0,0.04248971193415638,11.897119341563785,0)" xlink:href="#ar"/><use transform="matrix(0.04248971193415638,0,0,0.04248971193415638,22.901954732510287,0)" xlink:href="#aC"/><use transform="matrix(0.04248971193415638,0,0,0.04248971193415638,32.20720164609053,0)" xlink:href="#az"/><use transform="matrix(0.04248971193415638,0,0,0.04248971193415638,44.91162551440329,0)" xlink:href="#au"/><use transform="matrix(0.04248971193415638,0,0,0.04248971193415638,55.10915637860082,0)" xlink:href="#av"/></g><path fill="#a9afb8" d="M32 76v-337h29V76H32" id="aD"/><use transform="matrix(0.04248971193415638,0,0,0.04248971193415638,0,0)" xlink:href="#aD" id="t"/><path fill="#a9afb8" d="M100-194c63 0 86 42 84 106H49c0 40 14 67 53 68 26 1 43-12 49-29l28 8c-11 28-37 45-77 45C44 4 14-33 15-96c1-61 26-98 85-98zm52 81c6-60-76-77-97-28-3 7-6 17-6 28h103" id="aE"/><path fill="#a9afb8" d="M115-194c55 1 70 41 70 98S169 2 115 4C84 4 66-9 55-30l1 105H24l-1-265h31l2 30c10-21 28-34 59-34zm-8 174c40 0 45-34 45-75s-6-73-45-74c-42 0-51 32-51 76 0 43 10 73 51 73" id="aF"/><path fill="#a9afb8" d="M59-47c-2 24 18 29 38 22v24C64 9 27 4 27-40v-127H5v-23h24l9-43h21v43h35v23H59v120" id="aG"/><path fill="#a9afb8" d="M210-169c-67 3-38 105-44 169h-31v-121c0-29-5-50-35-48C34-165 62-65 56 0H25l-1-190h30c1 10-1 24 2 32 10-44 99-50 107 0 11-21 27-35 58-36 85-2 47 119 55 194h-31v-121c0-29-5-49-35-48" id="aH"/><path fill="#a9afb8" d="M115-194c53 0 69 39 70 98 0 66-23 100-70 100C84 3 66-7 56-30L54 0H23l1-261h32v101c10-23 28-34 59-34zm-8 174c40 0 45-34 45-75 0-40-5-75-45-74-42 0-51 32-51 76 0 43 10 73 51 73" id="aI"/><path fill="#a9afb8" d="M114-163C36-179 61-72 57 0H25l-1-190h30c1 12-1 29 2 39 6-27 23-49 58-41v29" id="aJ"/><g id="u"><use transform="matrix(0.04248971193415638,0,0,0.04248971193415638,0,0)" xlink:href="#at"/><use transform="matrix(0.04248971193415638,0,0,0.04248971193415638,10.19753086419753,0)" xlink:href="#aE"/><use transform="matrix(0.04248971193415638,0,0,0.04248971193415638,18.695473251028805,0)" xlink:href="#aF"/><use transform="matrix(0.04248971193415638,0,0,0.04248971193415638,27.193415637860078,0)" xlink:href="#aG"/><use transform="matrix(0.04248971193415638,0,0,0.04248971193415638,31.442386831275712,0)" xlink:href="#aE"/><use transform="matrix(0.04248971193415638,0,0,0.04248971193415638,39.94032921810699,0)" xlink:href="#aH"/><use transform="matrix(0.04248971193415638,0,0,0.04248971193415638,52.64475308641975,0)" xlink:href="#aI"/><use transform="matrix(0.04248971193415638,0,0,0.04248971193415638,61.142695473251024,0)" xlink:href="#aE"/><use transform="matrix(0.04248971193415638,0,0,0.04248971193415638,69.6406378600823,0)" xlink:href="#aJ"/></g><path fill="#a9afb8" d="M27 0v-27h64v-190l-56 39v-29l58-41h29v221h61V0H27" id="aK"/><path fill="#a9afb8" d="M68-38c1 34 0 65-14 84H32c9-13 17-26 17-46H33v-38h35" id="aL"/><g id="v"><use transform="matrix(0.04248971193415638,0,0,0.04248971193415638,0,0)" xlink:href="#aK"/><use transform="matrix(0.04248971193415638,0,0,0.04248971193415638,7.350720164609052,0)" xlink:href="#aK"/><use transform="matrix(0.04248971193415638,0,0,0.04248971193415638,15.848662551440325,0)" xlink:href="#aL"/></g><path fill="#a9afb8" d="M101-251c82-7 93 87 43 132L82-64C71-53 59-42 53-27h129V0H18c2-99 128-94 128-182 0-28-16-43-45-43s-46 15-49 41l-32-3c6-41 34-60 81-64" id="aM"/><path fill="#a9afb8" d="M101-251c68 0 85 55 85 127S166 4 100 4C33 4 14-52 14-124c0-73 17-127 87-127zm-1 229c47 0 54-49 54-102s-4-102-53-102c-51 0-55 48-55 102 0 53 5 102 54 102" id="aN"/><g id="w"><use transform="matrix(0.04248971193415638,0,0,0.04248971193415638,0,0)" xlink:href="#aM"/><use transform="matrix(0.04248971193415638,0,0,0.04248971193415638,8.497942386831275,0)" xlink:href="#aN"/><use transform="matrix(0.04248971193415638,0,0,0.04248971193415638,16.99588477366255,0)" xlink:href="#aM"/><use transform="matrix(0.04248971193415638,0,0,0.04248971193415638,25.493827160493822,0)" xlink:href="#aM"/></g></defs></g></svg>